<?xml version="1.0" encoding="utf-8"?>
<!-- Generator: Adobe Illustrator 23.1.1, SVG Export Plug-In . SVG Version: 6.00 Build 0)  -->
<svg version="1.1" id="Layer_1" xmlns="http://www.w3.org/2000/svg" xmlns:xlink="http://www.w3.org/1999/xlink" x="0px" y="0px"
	 viewBox="0 0 141 44.2" style="enable-background:new 0 0 141 44.2;" xml:space="preserve">
<g>
	<path d="M4.4,28.8C5.5,30.1,7.7,31,10,31c2.1,0,3.1-0.6,3.1-1.7c0-0.4-0.2-0.7-0.7-1c-0.4-0.2-1.2-0.4-2.4-0.7S7.8,27,7.2,26.8
		c-3.1-1.1-4.7-3-4.7-5.7c0-2.1,0.8-3.7,2.3-4.9c1.6-1.2,3.4-1.8,5.7-1.8c2.9,0,5.2,0.9,7.1,2.7l-2.9,4c-1.1-1-2.6-1.5-4.3-1.5
		c-1.3,0-2,0.5-2,1.3c0,0.5,0.2,0.8,0.9,1.1c0.8,0.3,2.5,0.6,4.8,1.4c3.2,1.2,4.9,3.2,4.9,5.9c0,4.2-3,6.9-9.1,6.9c-4,0-7-1.2-9-3.7
		L4.4,28.8z"/>
	<path d="M20.9,15.1h2.8H27v13.4c0,1.5,0.4,2.2,1.4,2.2c0.4,0,0.6,0,0.7-0.1v5.2c-0.5,0.2-1.5,0.3-2.8,0.3c-3.6,0-5.4-1.9-5.4-5.8
		V17.9V15.1z"/>
	<path d="M30.8,35.7V15.1h6.1v2.5c0.8-1.8,2.9-3,5.4-3c2.8,0,4.7,1.1,5.6,3.3c1.1-2.2,3.4-3.3,6.8-3.3c4.6,0,7.2,3.2,7.2,8.5v5.2
		c0,1.6,0.3,2.2,1.3,2.2h0.4h0.2v5.1c-0.6,0.2-1.4,0.3-2.6,0.3c-3.6,0-5.4-2-5.4-5.9v-6.1c0-2.4-1.1-3.9-3-3.9c-2,0-3.4,1.7-3.4,4.1
		v11.6h-6.1V23.9c0-2.4-1.1-3.9-3.1-3.9s-3.4,1.7-3.4,4.1v11.6H30.8z"/>
	<path d="M65.7,43.5V15.1h6.1v2.7c0.6-1.8,3-3.1,6.1-3.1c2.9,0,5.4,1,7.3,3.1c2,2,2.9,4.6,2.9,7.6s-1,5.5-2.9,7.6
		c-1.9,2-4.4,3.1-7.3,3.1c-3.1,0-5.5-1.3-6.1-3.1v10.6L65.7,43.5L65.7,43.5z M80.5,29c1-1,1.5-2.2,1.5-3.7c0-1.4-0.5-2.7-1.5-3.6
		c-1-1-2.2-1.5-3.7-1.5S74,20.7,73,21.7s-1.6,2.2-1.6,3.6S71.9,28,73,29s2.3,1.5,3.8,1.5S79.5,30,80.5,29z"/>
	<path d="M90.1,7.2h6.1V28c0,1.8,0.7,2.7,2.4,2.7c0.6,0,1.1,0,1.5-0.2v5.4c-0.7,0.2-1.7,0.3-2.9,0.3c-4.7,0-7-2.4-7-7.2L90.1,7.2
		L90.1,7.2z"/>
	<path d="M100.4,25.3c0-3.2,1.1-5.8,3.1-7.8c2.1-2,4.8-3,8-3c3.1,0,5.7,1,7.6,3c2,2,2.9,4.5,2.9,7.4c0,0.7,0,1.3-0.1,2h-15.6
		c0.1,2.5,2.2,4,5.5,4c1.9,0,3.6-0.7,5-2l3.6,3.4c-2.4,2.5-5.4,3.8-8.9,3.8c-3.4,0-6.1-1-8.2-2.9c-2.1-2-3.1-4.5-3.1-7.8v-0.1H100.4
		z M116,23c0-1.9-2-3.4-4.5-3.4c-2.7,0-4.8,1.5-5,3.4H116z"/>
	<path d="M125.9,28.8c1.1,1.3,3.3,2.2,5.6,2.2c2.1,0,3.1-0.6,3.1-1.7c0-0.4-0.2-0.7-0.7-1c-0.4-0.2-1.3-0.5-2.5-0.8
		s-2.2-0.6-2.8-0.8c-3.1-1.1-4.7-3-4.7-5.7c0-2.1,0.8-3.7,2.3-4.9c1.6-1.2,3.4-1.8,5.7-1.8c2.9,0,5.2,0.9,7.1,2.7l-2.9,4
		c-1.1-1-2.6-1.5-4.3-1.5c-1.3,0-2,0.5-2,1.3c0,0.5,0.2,0.8,0.9,1.1c0.8,0.3,2.5,0.6,4.8,1.4c3.4,1.1,5.1,3.1,5.1,5.8
		c0,4.2-3,6.9-9.1,6.9c-4,0-7-1.2-9-3.7L125.9,28.8z"/>
</g>
<g>
	<path d="M7.5,10.2l0.7,1.3c-0.6,0.5-1.6,1-2.9,1c-2.4,0-3.8-1.5-3.8-4.3c0-3.3,2.1-4.4,3.8-4.4c1.1,0,2.3,0.4,3,1.6l-1.2,1
		c-0.4-0.5-1-1-1.8-1c-1.1,0-1.9,0.9-1.9,2.8c0,1.7,0.6,2.8,2.1,2.8C6.2,10.9,6.8,10.7,7.5,10.2z"/>
	<path d="M12.5,3.7c1.2,0,3.6,0.4,3.6,4.2c0,3.2-1.7,4.6-3.9,4.6c-2.2,0-3.6-1.4-3.6-4.4C8.7,4.7,10.8,3.7,12.5,3.7z M14.1,8.1
		c0-1.8-0.4-3-1.7-3c-1.2,0-1.7,1.1-1.7,2.7c0,1.5,0.2,3.2,1.7,3.2C13.6,11,14.1,9.9,14.1,8.1z"/>
	<path d="M17.7,12.2V5.4L17.5,4h1.6l0.2,1c0.6-0.8,1.4-1.3,2.5-1.3c1.6,0,2.6,0.9,2.6,2.9v5.7h-2V7c0-1-0.2-1.8-1.2-1.8
		c-1,0-1.7,0.8-1.7,1.7v5.4H17.7z"/>
	<path d="M28.5,0.8V4h2.2v1.5h-2.2v4.2c0,1,0.4,1.3,1.1,1.3c0.4,0,0.9-0.2,1.1-0.3l0.5,1.3c-0.5,0.3-1.3,0.6-2.1,0.6
		c-2.6,0-2.6-1.6-2.6-2.7V0.8H28.5z"/>
	<path d="M38.8,10.7l0.1,1.6h-1.7l-0.1-0.9l-0.1,0c-0.5,0.7-1.4,1.1-2.3,1.1c-2.3,0-3.2-1.6-3.2-4c0-2.9,1.4-4.7,4.3-4.7
		c0.5,0,1.7,0.1,2.9,0.6V10.7z M36.9,5.4c-0.2-0.1-0.7-0.2-1.2-0.2c-1.6,0-2.1,1.5-2.1,3.2c0,1.4,0.3,2.7,1.7,2.7
		c1,0,1.6-0.7,1.6-1.4V5.4z"/>
</g>
</svg>
